<svg width="99" height="99" viewBox="0 0 99 99" fill="none" xmlns="http://www.w3.org/2000/svg">
<path d="M34.0278 8L34.0277 17.5M10.2778 12.75L16.9952 19.4676M5 37.0278L14.5 37.0279" stroke="#0C68CF" stroke-width="8" stroke-linecap="round" stroke-linejoin="round"/>
<path d="M93.2889 42.3024C90.5424 45.0489 86.8488 46.2709 83.2594 45.9685C78.3722 45.5568 71.4403 46.0971 67.9722 49.5652L65.6892 35.2501H48.5818C46.1412 35.2501 45.288 32.0104 47.412 30.8082L50.9824 28.7874C51.169 28.6818 51.3404 28.5514 51.4919 28.3998L52.3573 27.5345C55.8254 24.0664 53.4433 20.6278 53.0315 15.7406C52.7291 12.1512 53.9511 8.45758 56.6976 5.7111C61.6457 0.762965 69.6682 0.762967 74.6164 5.7111C77.5826 8.67737 78.4235 13.0957 78.6212 16.1591C78.6212 18.7619 80.1251 20.3788 82.8409 20.3788C85.9043 20.5765 90.3226 21.4173 93.2889 24.3836C98.237 29.3318 98.237 37.3543 93.2889 42.3024Z" fill="#EFEEEE"/>
<path d="M29.5197 49.5652L32.0276 56.2078C32.3955 57.1822 33.3553 57.8032 34.3948 57.7395L49.7881 56.7959C51.2317 56.7074 52.4186 57.9188 52.3005 59.3603L51.7208 66.4375C51.6751 66.996 51.4335 67.5193 51.0402 67.916C51.0026 67.9539 50.9578 67.9837 50.9094 68.0063L48.5818 69.0907C45.1138 72.5587 45.5567 78.3722 45.9685 83.2594C46.2709 86.8488 45.0489 90.5424 42.3024 93.2889C37.3543 98.237 29.3318 98.237 24.3836 93.2889C21.4174 90.3226 20.5765 85.9043 20.3788 82.8409C20.3788 80.375 19.06 78.6212 16.1591 78.6212C13.0957 78.4235 8.67736 77.5827 5.7111 74.6164C0.762968 69.6683 0.762967 61.6457 5.7111 56.6976C8.45758 53.9511 12.1512 52.7291 15.7406 53.0315C20.6278 53.4433 26.0517 53.0332 29.5197 49.5652Z" fill="#EFEEEE"/>
<path d="M93.2889 42.3024C90.5424 45.0489 86.8488 46.2709 83.2594 45.9685C78.3722 45.5568 71.4403 46.0971 67.9722 49.5652L65.6892 35.2501H48.5818C46.1412 35.2501 45.288 32.0104 47.412 30.8082L50.9824 28.7874C51.169 28.6818 51.3404 28.5514 51.4919 28.3998L52.3573 27.5345C55.8254 24.0664 53.4433 20.6278 53.0315 15.7406C52.7291 12.1512 53.9511 8.45758 56.6976 5.7111C61.6457 0.762965 69.6682 0.762967 74.6164 5.7111C77.5826 8.67737 78.4235 13.0957 78.6212 16.1591C78.6212 18.7619 80.1251 20.3788 82.8409 20.3788C85.9043 20.5765 90.3226 21.4173 93.2889 24.3836C98.237 29.3318 98.237 37.3543 93.2889 42.3024Z" stroke="black" stroke-width="4" stroke-linecap="round" stroke-linejoin="round"/>
<path d="M29.5197 49.5652L32.0276 56.2078C32.3955 57.1822 33.3553 57.8032 34.3948 57.7395L49.7881 56.7959C51.2317 56.7074 52.4186 57.9188 52.3005 59.3603L51.7208 66.4375C51.6751 66.996 51.4335 67.5193 51.0402 67.916C51.0026 67.9539 50.9578 67.9837 50.9094 68.0063L48.5818 69.0907C45.1138 72.5587 45.5567 78.3722 45.9685 83.2594C46.2709 86.8488 45.0489 90.5424 42.3024 93.2889C37.3543 98.237 29.3318 98.237 24.3836 93.2889C21.4174 90.3226 20.5765 85.9043 20.3788 82.8409C20.3788 80.375 19.06 78.6212 16.1591 78.6212C13.0957 78.4235 8.67736 77.5827 5.7111 74.6164C0.762968 69.6683 0.762967 61.6457 5.7111 56.6976C8.45758 53.9511 12.1512 52.7291 15.7406 53.0315C20.6278 53.4433 26.0517 53.0332 29.5197 49.5652Z" stroke="black" stroke-width="4" stroke-linecap="round" stroke-linejoin="round"/>
</svg>
