<svg width="85" height="85" viewBox="0 0 85 85" fill="none" xmlns="http://www.w3.org/2000/svg">
<circle cx="42.5" cy="42.5" r="40.5" fill="#EFEEEE" stroke="black" stroke-width="4"/>
<path d="M37.1874 36.6249C37.4636 36.6249 37.6874 36.401 37.6874 36.1249V28.3332C37.6874 26.4577 39.2078 24.9374 41.0833 24.9374H44.9791C46.8546 24.9374 48.3749 26.4577 48.3749 28.3332V36.1249C48.3749 36.401 48.5988 36.6249 48.8749 36.6249H56.6666C58.5421 36.6249 60.0624 38.1452 60.0624 40.0207V43.9165C60.0624 45.792 58.542 47.3124 56.6666 47.3124H48.8749C48.5988 47.3124 48.3749 47.5362 48.3749 47.8124V55.604C48.3749 57.4795 46.8546 58.9999 44.9791 58.9999H41.0833C39.2078 58.9999 37.6874 57.4795 37.6874 55.604V47.8124C37.6874 47.5362 37.4636 47.3124 37.1874 47.3124H29.3958C27.5203 47.3124 25.9999 45.792 25.9999 43.9165V40.0207C25.9999 38.1452 27.5203 36.6249 29.3958 36.6249H37.1874Z" fill="#0C68CF" stroke="#EFEEEE" stroke-linecap="round" stroke-linejoin="round"/>
</svg>
