<svg width="78" height="99" viewBox="0 0 78 99" fill="none" xmlns="http://www.w3.org/2000/svg">
<path d="M75.889 86.4444C75.889 92.2741 71.1631 97 65.3334 97H12.5556C6.72589 97 2 92.2741 2 86.4444V23.1111C2 17.2814 6.72589 12.5555 12.5556 12.5555H17.8334C17.8334 6.72586 22.5592 2 28.3889 2H49.5001C55.3297 2 60.0556 6.72586 60.0556 12.5555H65.3334C71.1631 12.5555 75.889 17.2814 75.889 23.1111V86.4444Z" fill="#EFEEEE"/>
<path d="M17.8334 12.5555H12.5556C6.72589 12.5555 2 17.2814 2 23.1111V86.4444C2 92.2741 6.72589 97 12.5556 97H65.3334C71.1631 97 75.889 92.2741 75.889 86.4444V23.1111C75.889 17.2814 71.1631 12.5555 65.3334 12.5555H60.0556M17.8334 12.5555C17.8334 18.3852 22.5592 23.1111 28.3889 23.1111H49.5001C55.3297 23.1111 60.0556 18.3852 60.0556 12.5555M17.8334 12.5555C17.8334 6.72586 22.5592 2 28.3889 2H49.5001C55.3297 2 60.0556 6.72586 60.0556 12.5555" stroke="black" stroke-width="4" stroke-linecap="round" stroke-linejoin="round"/>
<path d="M23.1111 54.7779H27.2161L33.0803 46.8611L44.2223 65.3334L51.2593 54.778H54.7778" stroke="#0C68CF" stroke-width="4" stroke-linecap="round" stroke-linejoin="round"/>
</svg>
