<svg width="91" height="82" viewBox="0 0 91 82" fill="none" xmlns="http://www.w3.org/2000/svg">
<path d="M36.8147 7.82102C39.1369 7.42688 41.5175 7.22241 43.9372 7.22241H47.0628C66.2779 7.22241 83.0271 20.1166 87.6874 38.4967C88.1042 40.1404 88.1042 41.86 87.6874 43.5037C86.9849 46.2745 86.0076 48.9208 84.7885 51.4169M49.5297 25.7772C55.0388 27.191 59.3894 31.4352 60.8889 36.8407" stroke="#0C68CF" stroke-width="6" stroke-linecap="round"/>
<path d="M71.7161 66.8488C63.3903 72.4533 55.7873 74.7778 47.0629 74.7778H43.9372C24.7221 74.7778 7.9729 61.8836 3.31257 43.5035C2.89581 41.8598 2.89581 40.1402 3.31257 38.4965C5.54644 29.6863 10.5579 22.1365 17.2871 16.663C18.9872 15.4688 19.8067 15.6667 19.8067 15.6667M71.7161 66.8488L84.04 79M71.7161 66.8488L57.042 52.3803M6.96003 3L19.8067 15.6667M34.2777 29.9349C31.2391 32.8117 29.8953 36.5348 29.8953 41.0163C29.8953 49.7469 37.0735 56.8245 45.9282 56.8245C50.2423 56.8245 54.1601 55.113 57.042 52.3803M34.2777 29.9349L57.042 52.3803M34.2777 29.9349L19.8067 15.6667" stroke="black" stroke-width="5" stroke-linecap="round"/>
</svg>
