<svg width="99" height="99" viewBox="0 0 99 99" fill="none" xmlns="http://www.w3.org/2000/svg">
<path d="M7.63238 91.3676C0.155316 83.8905 0.106272 71.7188 7.58334 64.2417L17.9152 53.91L53.8724 17.92C51.38 15.4276 51.38 11.3867 53.8724 8.89437L59.225 3.5417C61.2806 1.4861 64.6134 1.4861 66.669 3.5417L95.4583 32.331C97.5139 34.3866 97.5139 37.7194 95.4583 39.775L90.1056 45.1277C87.6133 47.62 83.5723 47.62 81.08 45.1277L67.321 58.854L34.7583 91.4167C27.2812 98.8937 15.1094 98.8447 7.63238 91.3676Z" fill="#EFEEEE"/>
<path d="M53.8724 17.92C51.38 15.4276 51.38 11.3867 53.8724 8.89437L59.225 3.5417C61.2806 1.4861 64.6134 1.4861 66.669 3.5417L95.4583 32.331C97.5139 34.3866 97.5139 37.7194 95.4583 39.775L90.1056 45.1277C87.6133 47.62 83.5724 47.62 81.08 45.1277M53.8724 17.92L17.9152 53.91M53.8724 17.92L81.08 45.1277M81.08 45.1277L67.321 58.854M17.9152 53.91L67.321 58.854M17.9152 53.91L7.58334 64.2417C0.106272 71.7188 0.155316 83.8905 7.63238 91.3676C15.1094 98.8447 27.2812 98.8937 34.7583 91.4167L67.321 58.854" stroke="black" stroke-linecap="round" stroke-linejoin="round"/>
<path d="M34.7656 90.3933L65.65 59.4736L16.5409 54.2L7.58458 63.1049C0.10585 70.6132 0.154904 82.8358 7.63364 90.3441C15.1124 97.8523 27.2868 97.9016 34.7656 90.3933Z" fill="#0C68CF"/>
<path d="M53.8724 17.92C51.38 15.4276 51.38 11.3867 53.8724 8.89437L59.225 3.5417C61.2806 1.4861 64.6134 1.4861 66.669 3.5417L95.4583 32.331C97.5139 34.3866 97.5139 37.7194 95.4583 39.775L90.1056 45.1277C87.6133 47.62 83.5723 47.62 81.08 45.1277M53.8724 17.92L17.9152 53.91M53.8724 17.92L81.08 45.1277M81.08 45.1277L67.321 58.8539M17.9152 53.91L67.321 58.8539M17.9152 53.91L7.58334 64.2417C0.106272 71.7188 0.155316 83.8905 7.63238 91.3676C15.1094 98.8447 27.2812 98.8937 34.7583 91.4167L67.321 58.8539" stroke="black" stroke-width="4" stroke-linecap="round" stroke-linejoin="round"/>
</svg>
