<svg width="130" height="100" viewBox="0 0 130 100" fill="none" xmlns="http://www.w3.org/2000/svg">
<path d="M32.675 63.75V79.9001H96.8V63.75L82.075 48.55L68.3 60.425L52.15 46.175L32.675 63.75Z" fill="#0C68CF" stroke="black" stroke-width="0.1"/>
<path d="M60.5417 17.8334H37.6333C35.9532 17.8334 35.1131 17.8334 34.4713 18.1604C33.9069 18.448 33.4479 18.9069 33.1603 19.4714C32.8333 20.1131 32.8333 20.9532 32.8333 22.6334V76.3667C32.8333 78.0469 32.8333 78.887 33.1603 79.5287C33.4479 80.0932 33.9069 80.5521 34.4713 80.8397C35.1131 81.1667 35.9532 81.1667 37.6333 81.1667H91.3667C93.0468 81.1667 93.8869 81.1667 94.5286 80.8397C95.0931 80.5521 95.5521 80.0932 95.8397 79.5287C96.1667 78.887 96.1667 78.0469 96.1667 76.3667V49.5" stroke="black" stroke-width="4" stroke-linecap="round" stroke-linejoin="round"/>
<path d="M32.8333 65.3333L51.9179 46.2486C52.3084 45.8581 52.9416 45.8581 53.3321 46.2486L68.4583 61.3748M68.4583 61.3748L81.6055 48.2278C81.996 47.8373 82.6292 47.8373 83.0197 48.2278L96.1667 61.3748M68.4583 61.3748L77.3646 70.2811" stroke="black" stroke-width="4" stroke-linecap="round" stroke-linejoin="round"/>
<path d="M78.4124 15.9123C75.6959 18.6289 75.6959 23.0333 78.4124 25.7499L88.25 35.5878L98.0876 25.7503C100.804 23.0337 100.804 18.6293 98.0876 15.9127C95.3711 13.1962 90.9668 13.1961 88.2502 15.9125C85.5336 13.196 81.129 13.1958 78.4124 15.9123Z" fill="#EFEEEE" stroke="#0C68CF" stroke-width="4" stroke-linecap="round" stroke-linejoin="round"/>
</svg>
